<?xml version="1.0" encoding="UTF-8"?>
<svg width="300px" height="265px" viewBox="0 0 300 265" version="1.1" xmlns="http://www.w3.org/2000/svg" xmlns:xlink="http://www.w3.org/1999/xlink">
    <!-- Generator: Sketch 57.1 (83088) - https://sketch.com -->
    <title>Combined Shape</title>
    <desc>Created with Sketch.</desc>
    <g id="Page-1" stroke="none" stroke-width="1" fill="none" fill-rule="evenodd">
        <g id="icon" transform="translate(-17.000000, -101.000000)" fill="#FD74F8">
            <path d="M75.1855719,101.86073 L101.139638,109.302939 L58.6033919,257.643041 C62.8915469,256.569826 67.3792285,256 72,256 C100.800286,256 124.430342,278.136385 126.803931,306.322917 L301.475212,184.016146 L316.961776,206.133251 L108.717702,351.949551 C98.9810823,360.685808 86.1111392,366 72,366 C41.6243388,366 17,341.375661 17,311 C17,308.550573 17.1601187,306.138544 17.4704602,303.773808 L17.3017271,303.725686 L17.6547074,302.487856 C18.3668829,297.904019 19.6451123,293.507417 21.4156908,289.371755 L75.1855719,101.86073 Z M72,284 C57.0883118,284 45,296.088312 45,311 C45,325.911688 57.0883118,338 72,338 C86.9116882,338 99,325.911688 99,311 C99,296.088312 86.9116882,284 72,284 Z" id="Combined-Shape"></path>
        </g>
    </g>
</svg>