<?xml version="1.0" encoding="UTF-8"?>
<svg width="185px" height="185px" viewBox="0 0 185 185" version="1.1" xmlns="http://www.w3.org/2000/svg" xmlns:xlink="http://www.w3.org/1999/xlink">
    <!-- Generator: Sketch 57.1 (83088) - https://sketch.com -->
    <title>Group</title>
    <desc>Created with Sketch.</desc>
    <g id="Page-1" stroke="none" stroke-width="1" fill="none" fill-rule="evenodd">
        <g id="icon" fill-rule="nonzero">
            <g id="Group">
                <path d="M75.0375269,185 L72.971221,185 L54.1480237,178.784089 C45.514828,175.913063 44.6939667,170.366129 43.6749666,148.624378 C37.9855491,149.209733 29.8052423,150.045954 25.5594083,150.045954 C17.5772404,150.045954 13.9824343,146.087841 12.3690174,142.77083 L4.55668289,126.882628 C0.905265667,118.854904 4.21701617,114.311436 18.6811572,98.2559892 L18.6528517,98.0051228 C2.32054366,84.9321983 -2.010207,80.6953443 0.792043428,72.1380142 L6.5946832,55.051228 C9.51015586,46.6611421 15.5675457,45.7134247 36.7117989,44.486967 L36.9099378,44.2639747 C34.6737986,22.9124604 34.7021041,17.3097785 42.5710498,13.2122947 L61.4791637,3.70724725 L64.5361642,3.70724725 C68.9518315,3.70724725 70.6784707,3.70724725 87.5768899,18.7034805 C101.47492,1.47732409 104.079031,0 110.023199,0 L112.11781,0 L130.884396,6.2159108 C139.517592,8.97544071 140.395065,15.0519813 141.357454,36.3756215 C147.075177,35.7623926 155.283789,34.9261715 159.501317,34.9261715 C167.540096,34.9261715 171.106597,38.9679072 172.691708,42.340666 L180.447432,58.1173723 C184.466821,65.7827332 181.09846,70.3540756 166.379569,86.7718849 L166.407874,87.0227512 C182.428821,99.8726834 187.184155,104.527648 184.127155,113.1686 L178.409431,130.00452 C175.833626,138.366732 169.719625,139.314449 148.320621,140.568781 L148.150788,140.763899 C150.330316,161.697303 150.358622,167.829592 142.234926,171.899201 L123.581562,181.320627 L120.496256,181.320627 C116.1372,181.320627 114.297338,181.320627 97.3989192,166.324394 C83.9820838,182.993069 81.2364445,185 75.0375269,185 Z M66.953231,165.216858 L69.3579656,166 C72.4699751,162.336015 76.5721695,157.329502 80.051962,152.938314 L83.8146644,148.183525 L107.607392,146.505364 L111.964205,150.449042 C116.122981,154.224904 120.989033,158.476245 124.666862,161.552874 L127.326216,160.210345 C126.986724,155.427586 126.392613,148.910728 125.770211,143.316858 L125.1761,137.499234 L140.622983,119.570881 L146.47922,119.235249 C152.194001,118.899617 158.814094,118.452107 163.595272,118.004598 L164.67033,114.872031 C161.077373,111.795402 156.15474,107.711877 151.826218,104.243678 L147.158203,100.495785 L145.687072,77.11341 L149.478065,72.8900383 C153.410513,68.4988506 157.880491,63.3524904 160.9925,59.5766284 L159.719405,56.9475096 C154.428989,57.3950192 147.724023,58.1222222 143.338919,58.6536398 L137.199773,59.4088123 L119.348155,43.7739464 L119.093536,38.0122605 C118.810626,32.2785441 118.442843,25.6777778 118.046769,20.8111111 L115.585452,20 C112.473443,23.6639847 108.342958,28.6984674 104.863165,33.0616858 L101.100463,37.8164751 L77.3926084,39.5505747 L73.0357951,35.5789272 C68.8770187,31.8030651 63.9826765,27.5517241 60.333138,24.4750958 L57.7020755,25.7896552 C58.0415674,30.6003831 58.6073873,37.1172414 59.2297892,42.7390805 L59.8239001,48.5287356 L44.4335985,66.4570881 L38.5490715,66.7367816 C32.8625814,67.0724138 26.1859064,67.5478927 21.4047282,67.9954023 L20.3296703,71.1 C23.9226268,74.2045977 28.873551,78.2601533 33.2020733,81.7283525 L37.9266696,85.4762452 L39.3695103,108.970498 L35.5785169,113.19387 C31.6177776,117.557088 27.1478003,122.675479 24.0074998,126.451341 L25.2805946,129.05249 C30.5993017,128.577011 37.3042677,127.849808 41.661081,127.318391 L47.800227,126.563218 L65.6801362,142.198084 L65.9347552,147.95977 C66.1610831,153.693487 66.5854481,160.350192 66.953231,165.216858 Z M92.6721058,131 C88.5824515,131 84.6048425,130.356702 80.7392788,129.042136 C60.8232226,122.385398 50.1509055,100.541228 56.9296476,80.375227 C62.2518005,64.6004359 76.9017265,54 93.4004004,54 C97.4620434,54 101.439652,54.6432982 105.277205,55.9019252 C125.193261,62.5586633 135.865578,84.4308028 129.086836,104.568834 C123.792694,120.371595 109.142768,131 92.6721058,131 Z" id="Shape" fill="#0053DC"></path>
                <circle id="Oval" fill="#FFFFFF" cx="92.5" cy="92.5" r="15.5"></circle>
            </g>
        </g>
    </g>
</svg>