<?xml version="1.0" encoding="UTF-8"?>
<svg width="72px" height="72px" viewBox="0 0 72 72" version="1.1" xmlns="http://www.w3.org/2000/svg" xmlns:xlink="http://www.w3.org/1999/xlink">
    <!-- Generator: Sketch 57.1 (83088) - https://sketch.com -->
    <title>Group 2</title>
    <desc>Created with Sketch.</desc>
    <g id="Page-1" stroke="none" stroke-width="1" fill="none" fill-rule="evenodd">
        <g id="icon" transform="translate(-44.000000, -7.000000)" fill-rule="nonzero">
            <g id="Group-2" transform="translate(44.000000, 7.000000)">
                <path d="M39.790469,72 L32.5121201,72 C30.4696435,72 29.8644653,71.3827784 26.2442026,62.2456946 L24.444878,61.5017222 C16.8261163,65.0121699 15.8913321,65.0121699 15.3239775,65.0121699 L14.1676548,65.0121699 L13.2490807,64.1634902 L8.09966229,59.0163031 C6.60292683,57.5063146 6.60292683,56.7072331 10.531182,47.6087256 L9.82874296,45.9058553 C0.626791745,42.5442021 0,41.9269805 0,39.7832377 L0,32.5088404 C0,30.3871412 0.56195122,29.8305396 9.79091932,26.1823192 L10.4933583,24.4794489 C6.51106942,15.9044776 6.31114447,14.7637199 7.89433396,13.1931114 L13.8650657,7.23030999 L15.1186492,7.20826636 C15.6481801,7.20826636 16.6099812,7.20826636 24.3638274,10.5313433 L26.1523452,9.79288175 C29.5186492,0.622732491 30.118424,0 32.209531,0 L39.4878799,0 C41.55197,0 42.1031144,0.562112514 45.750394,9.7543054 L47.5389118,10.4927669 C55.1468668,6.98231917 56.0924578,6.98231917 56.6652158,6.98231917 L57.8215385,6.98231917 L58.7401126,7.82548794 L63.9057411,12.9616533 C65.3970732,14.4771527 65.3970732,15.2762342 61.468818,24.3802526 L62.1766604,26.0941447 C71.4380488,29.4778416 72,30.0344432 72,32.2112514 L72,39.4746269 C72,41.601837 71.4380488,42.1584386 62.2090807,45.806659 L61.5066417,47.5150402 C65.624015,56.3765786 65.6402251,57.2583238 64.1326829,58.784845 L58.1349343,64.76969 L56.8813508,64.7917336 C56.3518199,64.7917336 55.3900188,64.7917336 47.6469794,61.4631458 L45.8530582,62.2126292 C42.4813508,71.3772675 41.8761726,72 39.790469,72 Z M34.4804994,65.9189189 L38.4897164,65.9189189 C39.2058417,64.2704455 40.3668328,61.2666836 41.3108162,58.6888695 L41.7502568,57.4829393 L48.1031567,54.8553391 L49.1990454,55.3366048 C51.7977124,56.4595582 54.8629459,57.7318699 56.5501807,58.3458986 L59.3387294,55.56894 C58.6714307,53.8928077 57.3856602,50.9830862 56.2300943,48.5325033 L55.6712996,47.3431684 L58.3296437,40.9262922 L59.4635088,40.4726854 C62.0730262,39.4437725 65.1111337,38.1880562 66.7549669,37.430201 L66.7549669,33.5745434 C65.1002833,32.8664743 62.1001521,31.7047984 59.5177607,30.7754577 L58.3187933,30.3439781 L55.6712996,23.9160382 L56.1758424,22.7598942 C57.2825816,20.209739 58.5249506,17.2115089 59.1542728,15.5021858 L56.3657241,12.7252273 C54.694765,13.3835103 51.7217597,14.7000763 49.2044706,15.8728157 L48.0814559,16.392804 L41.7339812,13.7817992 L41.2782651,12.6311869 C40.2529038,10.020182 38.988834,6.98876116 38.223882,5.35135135 L34.2200902,5.35135135 C33.5039649,6.99982474 32.348399,10.0035867 31.4044156,12.5814007 L30.964975,13.7817992 L24.6283507,16.4038676 L23.5324619,15.9281336 C20.9283697,14.7996485 17.8522858,13.5384004 16.1596259,12.9243717 L13.3765024,15.7013302 C14.043801,17.3774626 15.3349967,20.2816523 16.4851375,22.7432988 L17.038507,23.9271018 L14.3801629,30.3495099 L13.2462978,30.7920531 C10.6367804,31.820966 7.60409809,33.0766823 5.9602649,33.8345375 L5.9602649,37.6901951 C7.61494847,38.4093278 10.6205049,39.5599401 13.2028963,40.5003443 L14.3964385,40.931824 L17.038507,47.3487002 L16.5393894,48.4993125 C15.4326502,51.0439359 14.1902812,54.0476978 13.5609589,55.7570209 L16.3440825,58.5339794 C18.0150416,57.8756964 20.9880468,56.5646622 23.4999108,55.3919227 L24.6283507,54.8664027 L30.9758254,57.4884711 L31.4315415,58.6446152 C32.462328,61.2500882 33.7209726,64.2870409 34.4804994,65.9189189 Z M36.2356878,49.3783784 C28.7425923,49.3783784 22.6490066,43.2142326 22.6490066,35.6323333 C22.6490066,28.0560377 28.7425923,21.8918919 36.2356878,21.8918919 C43.7287833,21.8918919 49.8278146,28.0560377 49.8278146,35.6323333 C49.8278146,43.2198364 43.7287833,49.3783784 36.2356878,49.3783784 Z" id="Shape" fill="#0053DC"></path>
                <circle id="Oval" fill="#FFFFFF" cx="36" cy="35.5231788" r="6.91390728"></circle>
            </g>
        </g>
    </g>
</svg>