<?xml version="1.0" encoding="UTF-8"?>
<svg width="443px" height="747px" viewBox="0 0 443 747" version="1.1" xmlns="http://www.w3.org/2000/svg" xmlns:xlink="http://www.w3.org/1999/xlink">
    <g id="Page-1" stroke="none" stroke-width="1" fill="none" fill-rule="evenodd">
        <g id="Mobile">
            <g id="NETWORK" transform="translate(-95.000000, 0.000000)">
                <path class="fat1" d="M192.5,157.5 L1,157" id="Line-21" stroke="#FFDFFE" stroke-width="10" stroke-linecap="round"></path>
                <path class="fat2" d="M458,51 C458,235 458,327 458,327 C458,327 328,327 68,327" id="Line-21" stroke="#FFDFFE" stroke-width="10" stroke-linecap="round"></path>
                <path class="fourth" d="M488,0.5 L488,312.690205" id="Line-4" stroke="#FD5EF8" stroke-linecap="square"></path>
                <polyline class="seventh" id="Line-4" stroke="#FD5EF8" stroke-linecap="square" points="500 0.5 500 312.690205 604.5 399"></polyline>
                <polyline class="second" id="Line-4" stroke="#FD5EF8" stroke-linecap="square" points="479.75 0 479 708 401.686702 708 401.686702 747"></polyline>
                <polyline class="tenth" id="Line-4" stroke="#FD5EF8" stroke-linecap="square" points="458 0.5 458 312.690205 111.937671 312.690205"></polyline>
                <polyline class="fourth" id="Line-4" stroke="#FD5EF8" stroke-linecap="square" points="522 0.5 522 223.690878 336.5 223.5 336.5 291.5"></polyline>
                <polyline class="fifth" id="Line-6" stroke="#FD5EF8" stroke-linecap="square" points="509.5 0.5 509.5 248.5 171.5 248.5 213.008789 197.220703"></polyline>
                <polyline class="ninth" id="Line-19" stroke="#FD5EF8" stroke-linecap="square" points="450 0 450 326.5 1 326.5"></polyline>
                <polyline class="third" id="Line-12" stroke="#FD5EF8" stroke-linecap="square" stroke-linejoin="round" points="529.5 0.5 529.5 236.5 157.5 236.5 220.5 157.5 0.690071615 157.5"></polyline>
                <circle id="Oval" fill="#0053DC" cx="157.5" cy="236.5" r="5.5"></circle>
            </g>
        </g>
    </g>
</svg>